<?xml version="1.0" encoding="utf-8"?><!-- Uploaded to: SVG Repo, www.svgrepo.com, Generator: SVG Repo Mixer Tools -->
<svg width="800px" height="800px" viewBox="0 0 163 163" xmlns="http://www.w3.org/2000/svg"><title>Gestures</title><circle cx="81.5" cy="81.5" r="80" fill="#fde45c"/><path d="M58.06,86.62V86.5L56.6,85.17,55.35,84l-0.21-.1Z" fill="#f7c726"/><path d="M121.91,43.22a7.39,7.39,0,0,0-4.62,1.62L117.2,97c0,14-15.92,25.5-35.5,25.2a41.43,41.43,0,0,1-17-3.79,37.14,37.14,0,0,1-3.81-2.06,42.15,42.15,0,0,0,15.81,13.06,41.43,41.43,0,0,0,17,3.79c19.58,0.3,35.47-11.25,35.5-25.2l0.1-57.38A7.41,7.41,0,0,0,121.91,43.22Z" fill="#f7c726"/><path d="M72.83,56.27V72.79A7.4,7.4,0,0,1,58,72.85V72.79l0-15.77a7.4,7.4,0,0,1,14.54-1.93A6.64,6.64,0,0,1,72.83,56.27Z" fill="#fce7d0"/><path d="M72.87,55a7.4,7.4,0,0,1,14.76-.76V74.82a7.4,7.4,0,0,1-14.8,0V56.27a6.64,6.64,0,0,0-.22-1.18Z" fill="#fce7d0"/><path d="M102.47,57.1l0,15.06,0,0.63a7.4,7.4,0,1,1-14.8,0V57.07h0A7.4,7.4,0,1,1,102.47,57.1Z" fill="#fce7d0"/><path d="M80.23,82.22a7.4,7.4,0,0,0,7.4-7.4v-2a7.4,7.4,0,1,0,14.8,0l0-.63,0-15.06,0-17.49a7.4,7.4,0,1,1,14.8,0L117.2,97c0,14-15.92,25.5-35.5,25.2a41.43,41.43,0,0,1-17-3.79,43.21,43.21,0,0,1-17.62-15.6L34.91,84.53c-1.56-1.91-3.42-4.71-1.54-8.34a7.4,7.4,0,0,1,10-3.16l1.24,1.14L58,86.62l0-13.77a7.4,7.4,0,0,0,14.79-.06v2A7.4,7.4,0,0,0,80.23,82.22Z" fill="#fce7d0"/><path d="M87.67,56.54a1.5,1.5,0,0,1-1.5-1.5,5.59,5.59,0,0,0,0-.61,5.89,5.89,0,0,0-5.86-5.3h0A5.91,5.91,0,0,0,74.37,55a1.5,1.5,0,0,1-1.5,1.5h0a1.5,1.5,0,0,1-1.5-1.5,8.91,8.91,0,0,1,8.89-8.89h0a8.87,8.87,0,0,1,8.84,8,8.33,8.33,0,0,1,0,.93A1.5,1.5,0,0,1,87.67,56.54Z" fill="#5a150b"/><path d="M58,74.29h0a1.5,1.5,0,0,1-1.5-1.5l0-15.77A8.9,8.9,0,0,1,74.05,54.7,8.94,8.94,0,0,1,74.37,57a1.5,1.5,0,1,1-3,0,5.28,5.28,0,0,0,0-.61,5.19,5.19,0,0,0-.17-0.93A5.9,5.9,0,0,0,59.57,57l0,15.77A1.5,1.5,0,0,1,58,74.29Z" fill="#5a150b"/><path d="M87.63,78a1.5,1.5,0,0,1-1.5-1.5V54.26a1.53,1.53,0,0,1,1.5-1.54,1.47,1.47,0,0,1,1.5,1.46v22.3A1.5,1.5,0,0,1,87.63,78Z" fill="#5a150b"/><path d="M72.83,76.32a1.5,1.5,0,0,1-1.5-1.5V55.52a1.5,1.5,0,1,1,3,0v19.3A1.5,1.5,0,0,1,72.83,76.32Z" fill="#5a150b"/><path d="M80.23,83.72a8.91,8.91,0,0,1-8.9-8.9,1.5,1.5,0,1,1,3,0,5.9,5.9,0,0,0,11.8,0,1.5,1.5,0,1,1,3,0A8.91,8.91,0,0,1,80.23,83.72Z" fill="#5a150b"/><path d="M65.44,81.69a8.92,8.92,0,0,1-8.9-8.83l1.5-.07h1.5a5.89,5.89,0,1,0,11.79,0,1.5,1.5,0,0,1,3,0A8.9,8.9,0,0,1,65.44,81.69Z" fill="#5a150b"/><path d="M71,100.49a1.5,1.5,0,0,1-1.47-1.21,13.69,13.69,0,0,0-2.34-5.49,14.83,14.83,0,0,0-9.39-5.66,1.5,1.5,0,1,1,.51-3A17.87,17.87,0,0,1,69.58,92a16.69,16.69,0,0,1,2.86,6.67,1.5,1.5,0,0,1-1.19,1.76Z" fill="#5a150b"/><path d="M109.91,32.22a7.4,7.4,0,0,0-7.41,7.39l0,17.49,0,15.06,0,0.63a7.39,7.39,0,0,1-4.2,6.67L98.2,97c0,11.37-10.59,21.15-25.1,24.21a43.34,43.34,0,0,0,8.6,1c19.58,0.3,35.47-11.25,35.5-25.2l0.1-57.38A7.41,7.41,0,0,0,109.91,32.22Z" fill="#f4c7ad"/><path d="M95.08,49.68a7.4,7.4,0,0,0-2,.28,7.41,7.41,0,0,1,5.4,7.14l0,15.06,0,0.63A7.39,7.39,0,0,1,93,79.91a7.38,7.38,0,0,0,9.4-7.12l0-.63,0-15.06A7.41,7.41,0,0,0,95.08,49.68Z" fill="#f4c7ad"/><path d="M102.47,58.6a1.5,1.5,0,0,1-1.5-1.5,5.9,5.9,0,1,0-11.8,0,1.5,1.5,0,0,1-1.5,1.5h0a1.5,1.5,0,0,1-1.5-1.5,8.9,8.9,0,1,1,17.8,0A1.5,1.5,0,0,1,102.47,58.6Z" fill="#5a150b"/><path d="M95,81.69a8.91,8.91,0,0,1-8.9-8.9,1.5,1.5,0,0,1,3,0,5.9,5.9,0,0,0,11.8,0,1.5,1.5,0,0,1,3,0A8.91,8.91,0,0,1,95,81.69Z" fill="#5a150b"/><path d="M82.42,123.72H81.67a42.83,42.83,0,0,1-17.56-3.93,44.72,44.72,0,0,1-18.24-16.13L33.7,85.42C32.51,84,29.57,80.26,32,75.5a8.92,8.92,0,0,1,12-3.8,1.54,1.54,0,0,1,.33.23l1.24,1.14L56.52,83.19l0-10.34a1.5,1.5,0,0,1,1.5-1.5h0a1.5,1.5,0,0,1,1.5,1.5l0,13.77A1.5,1.5,0,0,1,57,87.72L42.48,74.27a5.91,5.91,0,0,0-7.78,2.6c-1.32,2.55-.41,4.52,1.37,6.7l0.09,0.12L48.36,102a41.73,41.73,0,0,0,17,15.07,39.87,39.87,0,0,0,16.36,3.65c10.87,0.2,21.17-3.52,27.62-9.85,4.15-4.08,6.35-8.87,6.36-13.85l0.1-57.38a5.9,5.9,0,1,0-11.8,0l-0.05,32.55a1.5,1.5,0,0,1-1.5,1.5h0a1.5,1.5,0,0,1-1.5-1.5L101,39.6a8.9,8.9,0,1,1,17.8,0L118.7,97c0,5.81-2.52,11.34-7.25,16C104.59,119.74,93.78,123.72,82.42,123.72Z" fill="#5a150b"/></svg>